<svg width="34" height="23" viewBox="0 0 34 23" fill="none" xmlns="http://www.w3.org/2000/svg">
<g clip-path="url(#clip0_881_9843)">
<path d="M4.79102 4.7915H5.05729V11.8615H4.79102V4.7915ZM5.32356 4.7915H5.58983V11.8615H5.32356V4.7915ZM6.92237 4.7915H7.18864V11.8615H6.92237V4.7915ZM12.1053 4.7915H12.3716V11.8615H12.1053V4.7915ZM13.838 4.7915H14.1043V11.8615H13.838V4.7915ZM15.5183 4.7915H15.7845V11.8615H15.5183V4.7915ZM15.9513 4.7915H16.2175V11.8615H15.9516L15.9513 4.7915ZM16.3849 4.7915H16.6512V11.8615H16.3849V4.7915ZM16.8722 4.7915H17.1385V11.8615H16.8723L16.8722 4.7915ZM17.3595 4.7915H17.6257V11.8615H17.3595V4.7915ZM18.7141 4.7915H18.9803V11.8615H18.7137L18.7141 4.7915ZM22.0727 4.7915H22.3389V11.8615H22.0727V4.7915ZM25.576 4.7915H25.8422V11.8615H25.576L25.576 4.7915ZM26.5343 4.7915H26.8006V11.8615H26.5343V4.7915ZM27.2271 4.7915H27.4934V11.8615H27.2271V4.7915ZM27.6533 4.7915H27.9196V11.8615H27.6533V4.7915ZM8.6808 4.7915H8.94707V11.8615H8.6808V4.7915ZM6.01636 4.7915H6.49585V11.8615H6.01636V4.7915ZM9.18053 4.7915H9.65992V11.8615H9.18053V4.7915ZM11.4023 4.7915H11.8817V11.8615H11.4023V4.7915ZM12.5398 4.7915H13.0192V11.8615H12.5398V4.7915ZM14.3274 4.7915H14.8068V11.8615H14.3274V4.7915ZM19.4238 4.7915H20.1695V11.8615H19.4238V4.7915ZM20.3978 4.7915H20.9835V11.8615H20.3972L20.3978 4.7915ZM21.4256 4.7915H21.905V11.8615H21.4256V4.7915ZM22.7847 4.7915H23.5841V11.8615H22.7847V4.7915ZM24.3501 4.7915H25.1495V11.8615H24.3501V4.7915ZM7.45519 4.7915H8.41398V11.8615H7.45519V4.7915ZM9.94033 4.7915H10.686V11.8615H9.94033V4.7915Z" fill="white"/>
<path d="M5.13672 18.1392V14.0925H6.65522C6.90897 14.0827 7.16208 14.1244 7.39925 14.2152C7.58104 14.2929 7.73429 14.425 7.8379 14.5934C7.9406 14.7527 7.99572 14.938 7.99679 15.1276C7.9968 15.3004 7.94801 15.4698 7.85604 15.6161C7.75243 15.7773 7.60492 15.9056 7.43089 15.9857C7.65423 16.0432 7.85269 16.172 7.99606 16.3527C8.12873 16.529 8.1982 16.7449 8.19332 16.9655C8.1949 17.1487 8.15386 17.3297 8.07345 17.4942C8.00548 17.6418 7.90337 17.771 7.77555 17.8713C7.64251 17.9667 7.49187 18.0349 7.33234 18.0718C7.11844 18.1208 6.89935 18.1436 6.67993 18.1396L5.13672 18.1392ZM5.67273 15.793H6.54784C6.71875 15.7997 6.88979 15.7839 7.05659 15.7461C7.17868 15.7151 7.28692 15.6443 7.36416 15.5448C7.43606 15.4414 7.47238 15.3174 7.46762 15.1915C7.47008 15.0665 7.43654 14.9435 7.37099 14.8371C7.30845 14.736 7.21122 14.6613 7.09752 14.6268C6.89576 14.5804 6.68868 14.5613 6.48184 14.5702H5.67291L5.67273 15.793ZM5.67273 17.6618H6.68011C6.80197 17.665 6.92389 17.6586 7.04474 17.6426C7.15405 17.6249 7.25899 17.5865 7.35395 17.5295C7.44072 17.4735 7.51113 17.3955 7.55805 17.3034C7.61283 17.1989 7.64044 17.0822 7.63836 16.9642C7.64212 16.8234 7.6016 16.685 7.5225 16.5684C7.4444 16.4566 7.33118 16.374 7.2008 16.3339C7.00802 16.2817 6.80849 16.2589 6.60891 16.2661H5.67273V17.6618ZM8.97591 16.1687C8.94195 15.5921 9.13622 15.0252 9.51675 14.5906C9.6961 14.4022 9.91334 14.2541 10.1541 14.1558C10.3949 14.0576 10.6538 14.0115 10.9137 14.0207C11.2687 14.0158 11.6181 14.1085 11.9239 14.2887C12.2213 14.4644 12.4599 14.7243 12.6097 15.0354C12.7713 15.3743 12.8519 15.7461 12.8455 16.1215C12.8523 16.5031 12.7674 16.8808 12.5979 17.2228C12.444 17.534 12.1983 17.7905 11.8941 17.9577C11.5932 18.1235 11.255 18.2095 10.9115 18.2075C10.552 18.2134 10.1982 18.118 9.8905 17.9322C9.59441 17.7527 9.35725 17.4906 9.20818 17.1781C9.05447 16.8639 8.97501 16.5185 8.97591 16.1687V16.1687ZM9.52824 16.1772C9.50526 16.5982 9.6472 17.0117 9.92395 17.3299C10.0488 17.4666 10.2015 17.5749 10.3718 17.6476C10.5421 17.7202 10.726 17.7555 10.9111 17.751C11.0973 17.7557 11.2823 17.7201 11.4534 17.6467C11.6246 17.5732 11.7778 17.4636 11.9026 17.3253C12.1819 16.9877 12.3216 16.5562 12.2933 16.1189C12.3007 15.8229 12.2446 15.5287 12.1288 15.2562C12.0267 15.0212 11.8566 14.8221 11.6404 14.6847C11.4243 14.5489 11.1736 14.4784 10.9184 14.4817C10.7376 14.479 10.558 14.5121 10.39 14.5791C10.2221 14.6462 10.069 14.7458 9.93982 14.8724C9.78692 15.0508 9.67164 15.2583 9.60092 15.4824C9.53019 15.7066 9.50547 15.9426 9.52824 16.1765V16.1772ZM13.7236 18.1394V14.0925H14.259V17.6614H16.2517V18.1392L13.7236 18.1394ZM17.1099 18.1394V14.0925H20.0361V14.5702H17.6453V15.8099H19.884V16.2847H17.6453V17.6619H20.13V18.1396L17.1099 18.1394ZM22.1086 18.1394V14.5702H20.7747V14.0925H23.9824V14.5702H22.6436V18.1392L22.1086 18.1394ZM24.4762 16.1687C24.4426 15.592 24.6374 15.0252 25.0184 14.5909C25.1977 14.4025 25.4149 14.2543 25.6557 14.1561C25.8965 14.0579 26.1554 14.0118 26.4153 14.0209C26.7702 14.0161 27.1196 14.1088 27.4255 14.2889C27.7228 14.4647 27.9614 14.7245 28.1113 15.0357C28.2729 15.3746 28.3536 15.7464 28.347 16.1218C28.3536 16.5034 28.2685 16.8811 28.0989 17.223C27.9445 17.5348 27.698 17.7915 27.3928 17.9585C27.0919 18.1243 26.7537 18.2103 26.4102 18.2084C26.0505 18.2143 25.6965 18.1187 25.3887 17.9325C25.0932 17.7528 24.8566 17.4907 24.708 17.1784C24.5544 16.864 24.4751 16.5186 24.4762 16.1687V16.1687ZM25.0285 16.1772C25.0055 16.5982 25.1475 17.0117 25.4242 17.3299C25.5491 17.4666 25.7018 17.5749 25.8721 17.6476C26.0424 17.7202 26.2263 17.7555 26.4114 17.751C26.5981 17.7563 26.7837 17.721 26.9555 17.6476C27.1273 17.5742 27.2811 17.4645 27.4063 17.3259C27.6856 16.9882 27.8253 16.5567 27.7969 16.1195C27.8028 15.8231 27.7449 15.5289 27.6273 15.2568C27.5252 15.0218 27.3551 14.8227 27.1389 14.6852C26.9229 14.5495 26.6724 14.4791 26.4174 14.4823C26.2365 14.4795 26.0569 14.5126 25.889 14.5797C25.721 14.6467 25.5679 14.7464 25.4387 14.8729C25.2861 15.0514 25.1711 15.2588 25.1006 15.4828C25.0302 15.7068 25.0056 15.9427 25.0285 16.1765V16.1772Z" fill="white"/>
</g>
<defs>
<clipPath id="clip0_881_9843">
<rect width="23.5555" height="13.4167" fill="white" transform="translate(4.79102 4.7915)"/>
</clipPath>
</defs>
</svg>
