<svg xmlns="http://www.w3.org/2000/svg" width="48" height="48" viewBox="0 0 192 192">

  <style>
    @media (prefers-color-scheme: dark) {
      svg { filter: invert(0%) hue-rotate(0deg) saturate(100%) contrast(100%) brightness(1); }
    }
  </style><path fill="#43BFE6" d="M49 7c-1.3 3.6-2.8 6.3-5.2 9.4C39.1 22.7 36.1 29.8 33 37h-2c-.2 1.3-.3 2.6-.5 3.9-.1.7-.2 1.4-.3 2.2C30 45 30 45 30 47c.3-.4.6-.9.9-1.3.4-.6.8-1.2 1.2-1.9.5-.6.9-1.3 1.4-2 2-3.1 2-3.1 4.1-6.2.4-.6.8-1.3 1.3-1.9 1-1.6 2.1-3.1 3.1-4.7h2l1-3c1 .3 2 .7 3 1 .3 3.9-.3 6-2.3 9.3-7.2 12.3-11.5 28.5-7.6 42.6 2.1 5.4 5.6 9.5 11.2 11.6 4.4 1 8.5-.3 12.7-1.5v-2c.7-.3.7-.3 1.5-.7 6.1-3.1 11-7.1 16.2-11.6.8-.7.8-.7 1.6-1.5.5-.4.9-.8 1.4-1.3C84 71 84 71 86 71v-2c1.9-1.7 2.7-2 5.3-1.8 3.3 1 5.1 2.5 7.5 4.9.6.5.6.5 1.2 1.1 1 .9 2 1.9 3 2.8-.9 4.8-.9 4.8-2.1 6.9-1.3 3-1.1 5.8-.9 9.1l3 1v2c4.6.5 7.7.7 11.2-2.5.5-.5 1-.9 1.5-1.4 1.3-1.1 1.3-1.1 3.7-1.4.5.1 1 .2 1.6.3v2c.6.2 1.1.5 1.7.8 1.8.9 3.4 1.9 5 3.1.6.4.6.4 1.2.9 1.5 1.6 1.7 3.1 2.1 5.2l5.4-5.4c.8-.7.8-.7 1.6-1.5l1.5-1.5 1.4-1.4c1.2-1.2 1.2-1.2 2.1-3.2 1.7.3 3.3.7 5 1v2c.6.3 1.1.5 1.7.8 2.5 1.3 4.4 2.7 6.5 4.5.8.6 1.5 1.2 2.2 1.8 2 2.4 2 3.8 1.6 6.9l-1.5 1.8c-2.2 3.3-2.2 6.4-1.5 10.2 1.9 2.7 3.3 3.7 6.3 4.9 4.6.1 8.2-1.6 11.6-4.6.4-.4.7-.9 1.1-1.3 4.9.4 7.5 2.8 11 6v2h3c1.9 11.9-7 20.4-14.3 28.9-12.3 13.8-26.2 22.7-43.1 29.9l-1.5.6c-9.8 4.1-20.7 2.9-31.1 2.9-2 0-4 .1-6.1.1-10.6 0-20.1-.1-29.9-4.4-.8-.3-1.6-.7-2.4-1-2.1-1-4.1-2-6.1-3.1-.7-.4-1.4-.8-2.2-1.2-9.9-5.5-20.1-12.8-27.3-21.7v-2c-.5-.1-.9-.2-1.4-.3-1.9-.8-2.5-1.6-3.7-3.3-.4-.6-.7-1.1-1.1-1.7-.4-.5-.8-1.1-1.2-1.7l-1.2-1.8C12 137.1 8 129.2 5 120c-.3-.8-.5-1.7-.8-2.5-2.7-9.4-2.6-18.7-2.5-28.4v-5c0-13.2 0-13.2 2.3-19.1.3-1.6.6-3.1.8-4.7C6 54.4 8.3 49.3 11 44c.2-.5.4-.9.7-1.4C16.6 32.6 35.9 2.3 49 7"/><path fill="#008DC1" d="M45 26c1 .3 2 .7 3 1 .3 3.9-.3 6-2.3 9.3-7.2 12.3-11.5 28.5-7.6 42.6 2.1 5.4 5.6 9.5 11.2 11.6 4.4 1 8.5-.3 12.7-1.5v-2c.7-.3.7-.3 1.5-.7 6.1-3.1 11-7.1 16.2-11.6.5-.5 1-1 1.6-1.5.5-.4.9-.8 1.4-1.3C84 71 84 71 86 71v-2c1.9-1.7 2.7-2 5.3-1.8 3.3 1 5.1 2.5 7.5 4.9.4.3.8.7 1.2 1.1 1 .9 2 1.9 3 2.8-.9 4.8-.9 4.8-2.1 6.9-1.3 3-1.1 5.8-.9 9.1l3 1v2c4.6.5 7.7.7 11.2-2.5.5-.5 1-.9 1.5-1.4 1.3-1.1 1.3-1.1 3.7-1.4.8.1.8.1 1.6.3v2c.6.2 1.1.5 1.7.8 2.7 1.4 4.9 3.2 7.3 5.2.5 4.6 0 7-3.2 10.4-2.3 2-4.7 3.7-7.3 5.4-.7.5-.7.5-1.4.9-3 1.9-5.6 2.8-9.1 3.3v2c-2.2.7-4.5 1.3-6.7 2-.6.2-1.2.4-1.9.6-3.6 1-6.6 1.6-10.4 1.4v2H67v-2c-.8-.1-.8-.1-1.5-.2-5.4-.8-9.3-2.6-13.7-5.6-.5-.3-1-.7-1.5-1-3.5-2.4-6.4-5.1-9.3-8.2l-1.1-1.1c-9.4-9.8-16.1-23.3-16.1-37.1v-1.7c.1-6.1.7-12 4.2-17.1.7-1.5 1.5-3 2.2-4.6C32.9 41.9 36.4 37 40 32c.7-1 1.3-2 2-3h2c.3-1 .7-2 1-3"/><path fill="#96DCF1" d="M12 123h2l1.2 2.6c1.8 3.6 4.1 6.7 6.6 9.8.5.6.9 1.2 1.4 1.8 5.6 7.7 5.6 7.7 12.8 13.8v2c.5.2 1.1.5 1.6.7 2.1 1.1 3.5 2.2 5.3 3.8 2 1.8 3.7 2.9 6.3 3.6 2.8.9 2.8.9 4.2 2.3C67.6 177.5 95 175 113 174c9.2-1 18-3.3 26.1-8 2.1-1.1 3.5-1.2 5.9-1v-2l1.2-.6c8.4-4.7 15.8-9.7 22.7-16.5l1.5-1.5 1.3-1.3c1.4-1.2 2.6-1.6 4.3-2.1-2 4.5-5 7.4-8.5 10.8l-1.9 1.9c-4.9 4.8-9.8 8.7-15.6 12.3-1 .7-2.1 1.4-3.1 2.1-5.3 3.5-5.3 3.5-7.6 5-1.2.8-2.3 1.6-3.5 2.4-4 2.4-8.8 3.4-13.2 4.6-1.4.4-1.4.4-2.9.8-18.3 5.2-39.3 4.8-56.7-3.9-.3-.7-.7-1.3-1-2-1.7-.8-3.3-1.5-5.1-2.2-5.2-2.3-9.5-5.2-13.9-8.8-.5-.4-.9-.7-1.4-1.1-2.6-2-4.9-4.2-7.2-6.5-1.5-1.5-3.1-2.7-4.7-4-4-3.5-6.7-7.4-9.5-11.9-.4-.7-.9-1.5-1.4-2.2C12 127.5 12 127.5 12 123"/><path fill="#A5E1F3" d="M124 174v2c-4.1 1-7.8 1.1-12 1 1 1.3 2 2.6 3 4-5.9 1.5-11.4 2.2-17.4 2.2h-1.9c-2.8 0-5-.2-7.7-1.2v-3c-1-.3-2-.7-3-1v-1c.9 0 .9 0 1.8-.1 10.6-.3 21.1-.7 31.6-2.5 2.6-.4 2.6-.4 5.6-.4"/><path fill="#8BD8F0" d="M176 141c-1.4 3-2.9 5.1-5.3 7.5-.6.6-1.2 1.2-1.9 1.8-.6.7-1.3 1.3-1.9 1.9l-2 2c-1.6 1.6-3.3 3.2-4.9 4.8-.3-.7-.7-1.3-1-2-.7-.3-1.3-.7-2-1 .7-.6 1.4-1.2 2.2-1.8 4.8-3.8 9.5-7.6 13.7-12.2 1.1-1 1.1-1 3.1-1"/><path fill="#3BB9E2" d="M103 123c-2.5 2.3-3.3 3.1-6.8 2.7-.7-.2-1.4-.5-2.2-.7-.3 1-.7 2-1 3-6.9-.3-13.9-.7-21-1v-1h18v-2c1.4-.4 2.8-.7 4.2-1.1l2.4-.6c2.5-.3 4.1-.1 6.4.7"/><path fill="#50C5E9" d="M27 149c4.5 3.2 8.6 6.3 12 10.7 1.2 1.5 2.6 2.9 4 4.3l-6-1-.8-2.4c-1.2-2.6-1.7-3.4-4.2-4.6v2c-.7-.3-1.3-.7-2-1 .3-.7.7-1.3 1-2-2.3-.3-4.6-.7-7-1 1-1.7 2-3.3 3-5"/><path fill="#38A3EC" d="M59 178c5.8-.2 5.8-.2 8 2v3c-3.1-.7-6-1.8-9-3 .3-.7.7-1.3 1-2"/><path fill="#8FD9F0" d="M71 173c1 .3 2 .7 3 1h-2c.6 2.9.9 3.9 3 6-4.2-.6-8-1.6-12-3 .6-.1 1.2-.3 1.8-.4 3.9-.8 3.9-.8 6.2-3.6"/><path fill="#6DCEEC" d="M176 141c-1.4 3.2-2.9 5-5.6 7.2-1 .8-1 .8-1.9 1.6L167 151c0-3.7.8-4.2 3.4-6.7l1.9-1.9c1.7-1.4 1.7-1.4 3.7-1.4"/><path fill="#74D0ED" d="M12 123h2c.5.9 1 1.9 1.4 2.8l.8 1.6c.8 1.5 1.3 3 1.8 4.6l-2 2c-.7-1.3-1.3-2.5-2-3.8-.4-.7-.7-1.4-1.1-2.2-.9-2-.9-2-.9-5"/><path fill="#36B1E2" d="M35 12c2.2 0 4 1.8 4 3 0 2.2-1.8 4-4 4-1.7 0-3-1.3-3-4 0-1.7 1.3-3 3-3"/><path fill="#2FB0DB" d="M103 123c-2 2.1-3.3 3-6.3 3-2.2-.3-4.5-.6-6.7-1v-1c1.4-.4 2.8-.7 4.2-1.1l2.4-.6c2.5-.3 4.1-.1 6.4.7"/><path fill="#30A6ED" d="M176 117c1.7.3 3.3.7 5 1-1.3.3-2.6.7-4 1-.3 1-.7 2-1 3-1.3-.3-2.6-.7-4-1z"/><path fill="#0099DA" d="M45 26c1.7 0 3 1.3 3 3s-1.3 3-3 3-3-1.3-3-3 1.3-3 3-3"/><path fill="#38AEDF" d="M70 181c2.3.3 4.6.7 7 1-.3.7-.7 1.3-1 2h-2v2h-2v-4c-.7-.3-1.3-.7-2-1"/><path fill="#31ABEB" d="m17 138 .4 1.8c.6 2.1 1.3 3.5 2.6 5.2h-3c-1.8-2.3-2-2.9-2-6 .7-.3 1.3-.7 2-1"/></svg>