<svg width="56" height="57" viewBox="0 0 56 57" fill="none" xmlns="http://www.w3.org/2000/svg">
<rect x="0.0976562" y="0.22522" width="55.8049" height="55.8049" rx="27.9024" fill="#FAFDFF"/>
<path d="M33.7074 15.7617H22.2928C20.5274 15.7636 18.8349 16.4657 17.5866 17.714C16.3383 18.9624 15.6362 20.6549 15.6343 22.4203V33.8349C15.6362 35.6003 16.3383 37.2928 17.5866 38.5411C18.8349 39.7894 20.5274 40.4915 22.2928 40.4934H33.7074C35.4728 40.4915 37.1653 39.7894 38.4137 38.5411C39.662 37.2928 40.3641 35.6003 40.366 33.8349V22.4203C40.3641 20.6549 39.662 18.9624 38.4137 17.714C37.1653 16.4657 35.4728 15.7636 33.7074 15.7617ZM28.0001 33.8349C26.8713 33.8349 25.7679 33.5002 24.8293 32.873C23.8908 32.2459 23.1592 31.3545 22.7273 30.3117C22.2953 29.2688 22.1823 28.1212 22.4025 27.0141C22.6227 25.907 23.1663 24.8901 23.9644 24.0919C24.7626 23.2937 25.7796 22.7501 26.8867 22.5299C27.9938 22.3097 29.1414 22.4227 30.1842 22.8547C31.2271 23.2867 32.1185 24.0182 32.7456 24.9568C33.3727 25.8953 33.7074 26.9988 33.7074 28.1276C33.7059 29.6408 33.1041 31.0915 32.0341 32.1615C30.9641 33.2315 29.5133 33.8333 28.0001 33.8349ZM35.1343 22.4203C34.8521 22.4203 34.5762 22.3366 34.3416 22.1798C34.1069 22.023 33.9241 21.8002 33.8161 21.5394C33.7081 21.2787 33.6798 20.9918 33.7349 20.7151C33.7899 20.4383 33.9258 20.1841 34.1254 19.9845C34.3249 19.785 34.5791 19.6491 34.8559 19.594C35.1327 19.539 35.4196 19.5672 35.6803 19.6752C35.941 19.7832 36.1639 19.9661 36.3206 20.2007C36.4774 20.4354 36.5611 20.7112 36.5611 20.9934C36.5611 21.3718 36.4108 21.7348 36.1432 22.0023C35.8756 22.2699 35.5127 22.4203 35.1343 22.4203ZM31.805 28.1276C31.805 28.8801 31.5819 29.6157 31.1638 30.2414C30.7457 30.8672 30.1514 31.3548 29.4562 31.6428C28.7609 31.9308 27.9959 32.0062 27.2578 31.8593C26.5198 31.7125 25.8418 31.3501 25.3097 30.818C24.7776 30.2859 24.4152 29.6079 24.2684 28.8699C24.1216 28.1318 24.1969 27.3668 24.4849 26.6715C24.7729 25.9763 25.2605 25.382 25.8863 24.9639C26.512 24.5458 27.2476 24.3227 28.0001 24.3227C29.0092 24.3227 29.977 24.7236 30.6906 25.4371C31.4041 26.1507 31.805 27.1185 31.805 28.1276Z" fill="#008EC0"/>
</svg>
