<svg width="44" height="44" viewBox="0 0 44 44" fill="none" xmlns="http://www.w3.org/2000/svg">
<rect x="-1" y="1" width="42" height="42" rx="21" transform="matrix(-1 0 0 1 42 0)" stroke="#FAFDFF" stroke-width="2"/>
<path d="M16.7041 22.7969L24.2041 30.2969C24.4154 30.5082 24.7021 30.6269 25.001 30.6269C25.2999 30.6269 25.5865 30.5082 25.7979 30.2969C26.0092 30.0855 26.1279 29.7989 26.1279 29.5C26.1279 29.2011 26.0092 28.9145 25.7979 28.7031L19.0938 22.0009L25.796 15.2969C25.9006 15.1922 25.9836 15.068 26.0403 14.9313C26.0969 14.7945 26.1261 14.648 26.1261 14.5C26.1261 14.352 26.0969 14.2055 26.0403 14.0687C25.9836 13.932 25.9006 13.8078 25.796 13.7031C25.6913 13.5985 25.5671 13.5155 25.4304 13.4588C25.2936 13.4022 25.1471 13.373 24.9991 13.373C24.8511 13.373 24.7046 13.4022 24.5678 13.4588C24.4311 13.5155 24.3069 13.5985 24.2022 13.7031L16.7022 21.2031C16.5975 21.3078 16.5144 21.4321 16.4578 21.5689C16.4012 21.7057 16.3721 21.8523 16.3723 22.0004C16.3725 22.1485 16.4019 22.295 16.4588 22.4317C16.5157 22.5684 16.5991 22.6925 16.7041 22.7969Z" fill="#FAFDFF"/>
</svg>
