<?xml version="1.0" encoding="utf-8"?>
<!-- Generator: Adobe Illustrator 28.3.0, SVG Export Plug-In . SVG Version: 6.00 Build 0)  -->
<svg version="1.1" id="Camada_1" xmlns="http://www.w3.org/2000/svg" xmlns:xlink="http://www.w3.org/1999/xlink" x="0px" y="0px"
	 viewBox="0 0 1920 1080" style="enable-background:new 0 0 1920 1080;" xml:space="preserve">
<style type="text/css">
	.st0{fill:#008EC1;}
	.st1{fill:#45C0E7;}
	.st2{opacity:0.5;fill:#FFFFFF;}
</style>
<g>
	<path class="st0" d="M361.77,407.55c-50.51,97.34-7.07,124.02,9.6,124.02c15.22,0,32.91-9.58,74.34-46.3l19.6,16.53
		c0,0-17.2,21.83,1.32,34.74c19.56,13.62,31.99-7.32,31.99-7.32l20.18,16.87c0,0-8.32,17.47-17.24,26.16
		c-27.74,27.03-38.7,33.58-68.97,47.13c-7.3,3.27-14.68,6.33-21.53,8.79C305.38,666.07,265.67,526.99,361.77,407.55"/>
	<path class="st1" d="M362.79,368.94c-1.37,1.72-29.54,15.62-55.26,55.26c-24.08,37.12-33.37,91.76-25.84,130.71
		c1.91,9.88,14.19,97.02,110.75,140.04c78.28,34.87,183.64,9.57,241.82-95.35l-23.61-19.7c0,0-16.66,24.5-36.97,8.52
		c-21.03-16.54,1.55-38.32,1.55-38.32l-26.46-22.49c-49.46,60.04-123.3,79.91-162.96,58.19
		C302.74,540.49,297.02,456.92,362.79,368.94"/>
	<path class="st2" d="M609.92,618.96c-16.74,22.49-67.93,84.22-151.48,84.74c-67.39,0.42-119.82-49.92-138.69-73.16
		c-19.46-23.96-26.22-49.35-21.46-40.07c3.7,7.22,58.3,98.75,159.71,98.75C559.56,689.22,618.71,607.15,609.92,618.96"/>
</g>
<path class="st1" d="M845.83,460.45c-6.52,0-11.84,1.92-15.97,5.76c-4.13,3.84-6.19,8.66-6.19,14.45c0,5.65,2.06,10.4,6.19,14.23
	c4.13,3.84,9.45,5.76,15.97,5.76c6.37,0,11.62-1.92,15.75-5.76c4.13-3.84,6.19-8.58,6.19-14.23c0-5.79-2.06-10.61-6.19-14.45
	C857.45,462.38,852.2,460.45,845.83,460.45"/>
<rect x="827.14" y="513.25" class="st1" width="37.16" height="121.24"/>
<path class="st1" d="M944.04,543.24c9.56,0,16,4.64,19.34,13.91h39.55c-3.19-14.48-9.89-25.71-20.1-33.68
	c-10.21-7.97-22.92-11.95-38.13-11.95c-11.88,0-22.42,2.54-31.61,7.6c-9.2,5.07-16.37,12.31-21.51,21.73
	c-5.14,9.42-7.71,20.42-7.71,33.03c0,12.6,2.57,23.61,7.71,33.03c5.14,9.42,12.31,16.66,21.51,21.73c9.2,5.07,19.73,7.6,31.61,7.6
	c15.06,0,27.74-4.05,38.02-12.17c10.28-8.11,17.02-19.26,20.21-33.46h-39.55c-3.33,9.27-9.78,13.91-19.34,13.91
	c-6.81,0-12.24-2.64-16.3-7.93c-4.06-5.29-6.08-12.85-6.08-22.71c0-9.85,2.03-17.42,6.08-22.71
	C931.8,545.88,937.23,543.24,944.04,543.24"/>
<polygon class="st1" points="1142.42,513.25 1096.57,513.25 1059.85,562.58 1059.85,473.71 1022.7,473.71 1022.7,634.5 
	1059.85,634.5 1059.85,583.65 1096.79,634.5 1142.85,634.5 1092.01,574.09 "/>
<path class="st1" d="M1242.15,518.9c-9.13-4.92-19.56-7.39-31.29-7.39c-12.03,0-22.67,2.54-31.94,7.61
	c-9.27,5.07-16.48,12.31-21.62,21.73c-5.14,9.42-7.71,20.42-7.71,33.03c0,12.6,2.61,23.61,7.82,33.03
	c5.22,9.42,12.46,16.66,21.73,21.73c9.27,5.07,19.84,7.61,31.72,7.61c9.85,0,18.76-1.81,26.73-5.43
	c7.96-3.62,14.59-8.62,19.88-14.99c5.29-6.37,8.94-13.54,10.97-21.51h-39.55c-3.62,7.82-10.07,11.73-19.34,11.73
	c-6.38,0-11.66-2.03-15.86-6.08c-4.2-4.05-6.59-9.92-7.17-17.6h84.09c0.43-3.77,0.65-7.31,0.65-10.65c0-12.02-2.57-22.6-7.71-31.72
	C1258.41,530.85,1251.28,523.83,1242.15,518.9 M1186.53,563.45c1.01-7.1,3.66-12.56,7.93-16.4c4.27-3.84,9.59-5.76,15.97-5.76
	c6.52,0,11.95,1.96,16.3,5.87c4.34,3.91,6.52,9.34,6.52,16.3H1186.53z"/>
<path class="st1" d="M1336.45,600.6c-1.74-1.59-2.61-4.2-2.61-7.82v-48.67h24.33v-30.85h-24.33V483.7h-37.16v29.55h-14.78v30.85
	h14.78v48.24c0,14.92,3.77,25.68,11.3,32.27c7.53,6.59,18.03,9.89,31.51,9.89h18.9v-31.51h-13.26
	C1341.09,602.99,1338.19,602.2,1336.45,600.6"/>
<path class="st1" d="M1640.86,571.7c0-12.02-2.57-22.6-7.71-31.72c-5.14-9.12-12.28-16.15-21.4-21.08
	c-9.13-4.92-19.56-7.39-31.29-7.39c-12.03,0-22.67,2.54-31.94,7.61c-9.27,5.07-16.48,12.31-21.62,21.73
	c-5.14,9.42-7.71,20.42-7.71,33.03c0,12.6,2.61,23.61,7.82,33.03c5.22,9.42,12.46,16.66,21.73,21.73
	c9.27,5.07,19.84,7.61,31.72,7.61c9.85,0,18.76-1.81,26.73-5.43c7.96-3.62,14.59-8.62,19.88-14.99c5.29-6.37,8.94-13.54,10.97-21.51
	h-39.55c-3.62,7.82-10.07,11.73-19.34,11.73c-6.38,0-11.66-2.03-15.86-6.08c-4.2-4.05-6.59-9.92-7.17-17.6h84.09
	C1640.65,578.58,1640.86,575.04,1640.86,571.7 M1556.12,563.45c1.01-7.1,3.66-12.56,7.93-16.4c4.27-3.84,9.59-5.76,15.97-5.76
	c6.52,0,11.95,1.96,16.3,5.87c4.34,3.91,6.52,9.34,6.52,16.3H1556.12z"/>
<path class="st1" d="M808.11,643.2c-2.57,7.11-6.13,10.55-12.79,11.4c-14.54,1.85-27.28-9.87-27.28-24.52v-2.05V512.16
	c0-0.47,0.38-0.86,0.86-0.86h38.7c0.47,0,0.86-0.38,0.86-0.86v-27.61c0-0.47-0.38-0.86-0.86-0.86H691.33
	c-0.47,0-0.86,0.38-0.86,0.86v27.61c0,0.47,0.38,0.86,0.86,0.86h38.7c0.47,0,0.86,0.38,0.86,0.86v122.13
	c-0.15,13.67,4.3,23.35,11.37,29.54c7.53,6.59,18.03,9.89,31.51,9.89C800.95,673.71,810.04,651.08,808.11,643.2"/>
<path class="st1" d="M1499.96,540.85c-4.71-9.41-11.12-16.66-19.23-21.73c-8.11-5.07-17.16-7.61-27.16-7.61
	c-8.55,0-16.01,1.74-22.38,5.21c-6.38,3.48-11.37,8.04-14.99,13.69v-17.16h-37.16v141.89c0,0.8,0.03,1.59,0.07,2.39
	c-0.01,1.06,0.11,2.15,0.11,3.27c0,33,22.19,50.26,51.6,50.26c36.9,0,41.8-26.82,41.8-37.79c-0.09,0.09-0.18,0.17-0.27,0.26
	c-3.73,11.32-14.39,19.49-26.96,19.49c-15.19,0-26.94-11.98-28.35-26.94c0,0-0.3-2.3-0.3-3.51l-0.01-2.99l0.03-14.81
	c0-0.91,0-1.47,0-1.47l0,0v-25.94c3.62,5.51,8.07,10.19,14.52,13.67c6.44,3.48,13.87,5.22,22.27,5.22c9.99,0,19.05-2.57,27.16-7.71
	c8.11-5.14,14.52-12.46,19.23-21.95c4.71-9.49,7.06-20.46,7.06-32.92C1507.02,561.2,1504.66,550.27,1499.96,540.85 M1461.39,595.71
	c-5.22,5.43-11.52,8.15-18.9,8.15c-7.39,0-13.66-2.68-18.8-8.04c-5.14-5.36-7.71-12.67-7.71-21.95c0-9.27,2.57-16.58,7.71-21.95
	c5.14-5.36,11.41-8.04,18.8-8.04c7.53,0,13.87,2.64,19.01,7.93c5.14,5.29,7.71,12.57,7.71,21.84
	C1469.21,582.93,1466.6,590.28,1461.39,595.71"/>
</svg>
