<svg width="22" height="14" viewBox="0 0 22 14" fill="none" xmlns="http://www.w3.org/2000/svg">
<path d="M15.0234 0C18.6349 0.000211672 21.5624 2.96186 21.5625 6.61523C21.5625 10.2687 18.6349 13.2303 15.0234 13.2305C13.4041 13.2305 11.9234 12.6336 10.7812 11.6475C9.63913 12.6336 8.15836 13.2305 6.53906 13.2305C2.9276 13.2303 0 10.2687 0 6.61523C6.7504e-05 2.96186 2.92764 0.000210111 6.53906 0C8.15808 0 9.63921 0.59616 10.7812 1.58203C11.9233 0.596161 13.4044 0 15.0234 0Z" fill="white"/>
<path d="M15.0234 0C18.6349 0.000211541 21.5624 2.96186 21.5625 6.61523C21.5625 10.2687 18.6349 13.2303 15.0234 13.2305C13.4041 13.2305 11.9234 12.6336 10.7812 11.6475C12.1865 10.4341 13.0791 8.6307 13.0791 6.61523C13.0791 4.59953 12.1868 2.79538 10.7812 1.58203C11.9233 0.596161 13.4044 0 15.0234 0Z" fill="#F4F4F4"/>
<path d="M10.7822 1.58252C12.1876 2.79589 13.0801 4.6001 13.0801 6.61572C13.08 8.63112 12.1874 10.4346 10.7822 11.6479C9.37689 10.4346 8.48442 8.63125 8.48438 6.61572C8.48438 4.59997 9.37666 2.79589 10.7822 1.58252Z" fill="white"/>
</svg>
