<svg width="25" height="9" viewBox="0 0 25 9" fill="none" xmlns="http://www.w3.org/2000/svg">
<path d="M10.0098 8.05128V3.10609C10.0098 2.88974 10.0524 2.67552 10.1352 2.47566C10.218 2.27579 10.3394 2.09419 10.4924 1.94124C10.6454 1.78828 10.827 1.66697 11.0269 1.58422C11.2268 1.50148 11.441 1.45892 11.6574 1.45898H13.1158C13.5516 1.45989 13.9691 1.63361 14.2769 1.94204C14.5847 2.25047 14.7576 2.66841 14.7576 3.10414V4.15667C14.7576 4.59364 14.584 5.01271 14.275 5.32169C13.966 5.63068 13.547 5.80426 13.11 5.80426H11.0472" stroke="white" stroke-width="0.359655" stroke-linecap="round" stroke-linejoin="round"/>
<path d="M15.168 1.45801H15.8C15.9793 1.45801 16.1513 1.52926 16.2781 1.65608C16.405 1.7829 16.4762 1.9549 16.4762 2.13425V5.82905" stroke="white" stroke-width="0.359655" stroke-linecap="round" stroke-linejoin="round"/>
<path d="M16.3384 0.885862L16.0516 0.598543C16.0346 0.581608 16.0212 0.56149 16.012 0.539341C16.0028 0.517193 15.998 0.493448 15.998 0.469468C15.998 0.445488 16.0028 0.421744 16.012 0.399595C16.0212 0.377446 16.0346 0.357328 16.0516 0.340393L16.3384 0.0535607C16.3554 0.0365829 16.3755 0.0231117 16.3976 0.0139209C16.4198 0.00473022 16.4435 0 16.4675 0C16.4915 0 16.5152 0.00473022 16.5374 0.0139209C16.5595 0.0231117 16.5797 0.0365829 16.5966 0.0535607L16.8839 0.340393C16.9009 0.357328 16.9144 0.377446 16.9235 0.399595C16.9327 0.421744 16.9375 0.445488 16.9375 0.469468C16.9375 0.493448 16.9327 0.517193 16.9235 0.539341C16.9144 0.56149 16.9009 0.581608 16.8839 0.598543L16.5966 0.885862C16.5797 0.90284 16.5595 0.91631 16.5374 0.9255C16.5152 0.934691 16.4915 0.939421 16.4675 0.939421C16.4435 0.939421 16.4198 0.934691 16.3976 0.9255C16.3755 0.91631 16.3554 0.90284 16.3384 0.885862" fill="white"/>
<path d="M17.6914 1.45508H18.3195C18.6426 1.45513 18.9525 1.58348 19.181 1.81192L20.6502 3.2806C20.6953 3.32595 20.749 3.36193 20.8081 3.38648C20.8672 3.41103 20.9306 3.42367 20.9946 3.42367C21.0586 3.42367 21.122 3.41103 21.1811 3.38648C21.2402 3.36193 21.2939 3.32595 21.339 3.2806L22.8043 1.81727C22.9174 1.70411 23.0517 1.61436 23.1996 1.55313C23.3474 1.4919 23.5058 1.4604 23.6658 1.46043H24.1763" stroke="white" stroke-width="0.359655" stroke-linecap="round" stroke-linejoin="round"/>
<path d="M17.6914 5.79623H18.3195C18.6426 5.79618 18.9525 5.66783 19.181 5.43939L20.6502 3.9712C20.6953 3.92585 20.749 3.88987 20.8081 3.86532C20.8672 3.84076 20.9306 3.82812 20.9946 3.82812C21.0586 3.82812 21.122 3.84076 21.1811 3.86532C21.2402 3.88987 21.2939 3.92585 21.339 3.9712L22.8043 5.43404C22.9174 5.5472 23.0517 5.63695 23.1996 5.69818C23.3474 5.75941 23.5058 5.79091 23.6658 5.79088H24.1763" stroke="white" stroke-width="0.359655" stroke-linecap="round" stroke-linejoin="round"/>
<path d="M6.2649 6.73415C6.10981 6.73462 5.95617 6.70431 5.81289 6.64498C5.6696 6.58564 5.53951 6.49847 5.43016 6.38849L4.22498 5.18622C4.18242 5.14537 4.12572 5.12256 4.06673 5.12256C4.00774 5.12256 3.95104 5.14537 3.90849 5.18622L2.69893 6.3953C2.58958 6.50527 2.45949 6.59245 2.3162 6.65178C2.17292 6.71112 2.01928 6.74143 1.8642 6.74096H1.62695L3.153 8.26749C3.382 8.49629 3.69246 8.62481 4.01618 8.62481C4.33989 8.62481 4.65035 8.49629 4.87935 8.26749L6.40977 6.73658L6.2649 6.73415Z" fill="white"/>
<path d="M1.86518 2.47167C2.02025 2.4713 2.17385 2.50166 2.31712 2.56099C2.46039 2.62032 2.59049 2.70744 2.69991 2.81732L3.90947 4.02688C3.95148 4.06877 4.00838 4.0923 4.06771 4.0923C4.12704 4.0923 4.18394 4.06877 4.22596 4.02688L5.43114 2.8217C5.54056 2.71181 5.67065 2.62469 5.81393 2.56536C5.9572 2.50604 6.11081 2.47568 6.26588 2.47604H6.41172L4.8813 0.945617C4.76797 0.83221 4.63341 0.742246 4.48531 0.680866C4.3372 0.619485 4.17845 0.587891 4.01812 0.587891C3.8578 0.587891 3.69905 0.619485 3.55094 0.680866C3.40284 0.742246 3.26828 0.83221 3.15496 0.945617L1.62891 2.47167H1.86518Z" fill="white"/>
<path d="M7.67683 3.74203L6.75313 2.81833C6.73224 2.82669 6.70999 2.83114 6.6875 2.83146H6.26697C6.04806 2.83237 5.83837 2.91974 5.68358 3.07454L4.47645 4.27729C4.4228 4.33102 4.35906 4.37363 4.2889 4.40266C4.21873 4.4317 4.14353 4.44659 4.06759 4.44647C3.91417 4.44674 3.76693 4.38606 3.65825 4.27778L2.44869 3.06822C2.2939 2.91342 2.08422 2.82605 1.8653 2.82514H1.34852C1.32718 2.82474 1.30609 2.82046 1.28629 2.8125L0.357728 3.74106C0.24432 3.85438 0.154357 3.98894 0.0929764 4.13705C0.0315959 4.28516 0 4.44391 0 4.60423C0 4.76456 0.0315959 4.92331 0.0929764 5.07141C0.154357 5.21952 0.24432 5.35408 0.357728 5.46741L1.28629 6.39597C1.30609 6.388 1.32718 6.38372 1.34852 6.38333H1.8653C2.08418 6.38226 2.29381 6.29491 2.44869 6.14025L3.65825 4.93069C3.76849 4.82551 3.91499 4.76683 4.06735 4.76683C4.21971 4.76683 4.36622 4.82551 4.47645 4.93069L5.68164 6.13587C5.83652 6.29054 6.04615 6.37789 6.26503 6.37895H6.68555C6.7081 6.37919 6.7304 6.38382 6.75119 6.39256L7.67489 5.46886C7.90369 5.23987 8.03221 4.9294 8.03221 4.60569C8.03221 4.28198 7.90369 3.97151 7.67489 3.74252" fill="white"/>
<path d="M11.2659 7.63072C11.1894 7.63415 11.1134 7.64572 11.0393 7.66523V7.96665C11.096 7.98659 11.1557 7.99662 11.2158 7.99631C11.367 7.99631 11.4385 7.94526 11.4385 7.81205C11.4385 7.68711 11.3796 7.63072 11.2659 7.63072V7.63072ZM10.9883 8.19028V7.59474H11.0301L11.0345 7.62051C11.1116 7.59988 11.1906 7.58718 11.2703 7.58259C11.3254 7.57878 11.3802 7.59462 11.4248 7.62731C11.4493 7.65107 11.4681 7.67999 11.4798 7.71196C11.4916 7.74393 11.4961 7.77813 11.4929 7.81205C11.4958 7.84989 11.4883 7.8878 11.4711 7.92166C11.454 7.95551 11.4279 7.98402 11.3957 8.00409C11.3412 8.03097 11.281 8.04431 11.2202 8.04298C11.1587 8.04261 11.0976 8.03327 11.0388 8.01527V8.19028H10.9883Z" fill="white"/>
<path d="M11.8728 7.62936C11.7216 7.62936 11.6545 7.67797 11.6545 7.80972C11.6545 7.94147 11.7211 7.99641 11.8728 7.99641C12.0245 7.99641 12.0906 7.94779 12.0906 7.81653C12.0906 7.68527 12.024 7.62936 11.8728 7.62936V7.62936ZM12.0673 7.99641C12.0091 8.03241 11.9411 8.0494 11.8728 8.04502C11.8046 8.04911 11.7367 8.03214 11.6784 7.99641C11.6511 7.97476 11.6298 7.94666 11.6162 7.91465C11.6026 7.88264 11.5972 7.84774 11.6006 7.81313C11.5975 7.77846 11.6029 7.74357 11.6165 7.71152C11.6301 7.67947 11.6513 7.65125 11.6784 7.62936C11.7366 7.59339 11.8045 7.5764 11.8728 7.58074C11.9411 7.5765 12.009 7.59348 12.0673 7.62936C12.0943 7.65104 12.1156 7.67908 12.1292 7.71098C12.1427 7.74287 12.1482 7.77763 12.1451 7.81216C12.1484 7.84691 12.143 7.88194 12.1295 7.91411C12.1159 7.94627 12.0945 7.97455 12.0673 7.99641" fill="white"/>
<path d="M12.7812 8.0308L12.613 7.6691H12.6096L12.4439 8.0308H12.4006L12.2207 7.59326H12.2771L12.4263 7.95934H12.4298L12.5921 7.59326H12.6407L12.8075 7.95934H12.8109L12.9567 7.59326H13.0112L12.8318 8.0308H12.7812Z" fill="white"/>
<path d="M13.332 7.6283C13.192 7.6283 13.1448 7.69053 13.1375 7.78047H13.5294C13.5255 7.68081 13.4744 7.6283 13.3349 7.6283H13.332ZM13.3349 8.043C13.2705 8.04984 13.2059 8.03251 13.1536 7.99438C13.1284 7.97136 13.1088 7.94296 13.0962 7.91131C13.0836 7.87967 13.0783 7.84558 13.0806 7.81158C13.0787 7.7763 13.0851 7.74106 13.0992 7.70866C13.1133 7.67625 13.1347 7.64758 13.1618 7.6249C13.2127 7.59318 13.2721 7.5779 13.332 7.58115C13.3931 7.57737 13.4539 7.59211 13.5065 7.62344C13.5697 7.66574 13.5819 7.74012 13.5819 7.82471H13.1341C13.1341 7.91416 13.1652 7.99389 13.3344 7.99389C13.4102 7.99208 13.4857 7.98362 13.56 7.96861V8.01431C13.4844 8.0301 13.4077 8.03921 13.3305 8.04154" fill="white"/>
<path d="M13.7285 8.03075V7.59321H13.7703L13.7747 7.61897C13.8446 7.596 13.9175 7.58323 13.991 7.58105H13.9974V7.62967H13.9852C13.9154 7.63119 13.8461 7.64282 13.7796 7.66419V8.02978L13.7285 8.03075Z" fill="white"/>
<path d="M14.2937 7.6283C14.1536 7.6283 14.106 7.69053 14.0992 7.78047H14.4915C14.4872 7.6808 14.4361 7.6283 14.2971 7.6283H14.2937ZM14.2971 8.04299C14.2327 8.04969 14.1681 8.03238 14.1157 7.99438C14.0917 7.97108 14.0731 7.94273 14.0613 7.91137C14.0495 7.88 14.0449 7.84642 14.0477 7.81304C14.0458 7.77775 14.0521 7.74251 14.0662 7.71011C14.0803 7.67771 14.1018 7.64903 14.1289 7.62635C14.1797 7.59463 14.2391 7.57935 14.299 7.5826C14.36 7.57886 14.4206 7.5936 14.4731 7.6249C14.5363 7.66719 14.5484 7.74157 14.5484 7.82616H14.1011C14.1011 7.91562 14.1323 7.99535 14.3014 7.99535C14.3772 7.99351 14.4527 7.98505 14.527 7.97007V8.01577C14.4513 8.03152 14.3744 8.04063 14.2971 8.04299" fill="white"/>
<path d="M15.1011 7.65859C15.0445 7.63884 14.985 7.62897 14.9251 7.62942C14.7739 7.62942 14.7019 7.68046 14.7019 7.81318C14.7019 7.9459 14.7608 7.99452 14.875 7.99452C14.9513 7.99093 15.027 7.97969 15.1011 7.96098V7.65859ZM15.1108 8.03098L15.1064 8.00473C15.0293 8.02547 14.9503 8.03834 14.8706 8.04314C14.8153 8.04738 14.7604 8.0313 14.716 7.99792C14.6914 7.97428 14.6725 7.94539 14.6606 7.9134C14.6488 7.88141 14.6443 7.84715 14.6475 7.81318C14.6446 7.77548 14.6522 7.73772 14.6693 7.70402C14.6865 7.67032 14.7126 7.64199 14.7447 7.62212C14.7994 7.59458 14.86 7.58105 14.9212 7.58274C14.9823 7.58346 15.043 7.59279 15.1016 7.61045V7.41064H15.1526V8.03098H15.1108Z" fill="white"/>
<path d="M15.9016 7.63087C15.8251 7.6343 15.7492 7.64587 15.6751 7.66539V7.96584C15.7316 7.98648 15.7914 7.99685 15.8516 7.99646C16.0028 7.99646 16.0742 7.94542 16.0742 7.81221C16.0742 7.68727 16.0154 7.63087 15.9016 7.63087V7.63087ZM16.0319 8.00424C15.9774 8.03112 15.9172 8.04446 15.8564 8.04314C15.7903 8.04245 15.7246 8.03129 15.662 8.01008V8.03098H15.627V7.41064H15.6756V7.61726C15.7512 7.59796 15.8286 7.58591 15.9065 7.58129C15.9617 7.57748 16.0165 7.59332 16.0611 7.62601C16.0855 7.64976 16.1043 7.67869 16.1161 7.71066C16.1279 7.74263 16.1323 7.77683 16.1292 7.81075C16.132 7.84859 16.1245 7.8865 16.1074 7.92035C16.0902 7.95421 16.0641 7.98272 16.0319 8.00278" fill="white"/>
<path d="M16.1938 8.20048V8.15186C16.2186 8.15186 16.2424 8.15624 16.2585 8.15624C16.288 8.15865 16.3175 8.15111 16.3423 8.13481C16.367 8.11851 16.3856 8.09439 16.3951 8.0663L16.4116 8.03178L16.1836 7.59424H16.2424L16.4369 7.97052H16.4403L16.626 7.59424H16.6839L16.4408 8.0838C16.3956 8.17277 16.3474 8.20194 16.2585 8.20194C16.2369 8.20291 16.2153 8.20243 16.1938 8.20048Z" fill="white"/>
<path d="M17.3874 7.7822H17.2177V7.93533H17.3878C17.5045 7.93533 17.5488 7.92221 17.5488 7.85804C17.5488 7.79386 17.488 7.7822 17.3874 7.7822V7.7822ZM17.3562 7.53425H17.2177V7.68982H17.3567C17.4719 7.68982 17.5176 7.67621 17.5176 7.61107C17.5176 7.54592 17.4598 7.53425 17.3562 7.53425V7.53425ZM17.6188 7.98978C17.5565 8.02916 17.4812 8.03111 17.3441 8.03111H17.0859V7.43945H17.3378C17.4564 7.43945 17.5288 7.43945 17.5891 7.47737C17.6092 7.48936 17.6255 7.50674 17.6363 7.52753C17.647 7.54832 17.6517 7.5717 17.6499 7.59502C17.6514 7.62422 17.643 7.65306 17.626 7.67688C17.6091 7.70071 17.5846 7.71811 17.5565 7.72629V7.72969C17.6324 7.7467 17.6815 7.7856 17.6815 7.8697C17.6833 7.89358 17.6784 7.9175 17.6673 7.93873C17.6562 7.95996 17.6394 7.97765 17.6188 7.98978" fill="white"/>
<path d="M18.1977 7.84744C18.1491 7.84306 18.0951 7.84063 18.0407 7.84063C17.9517 7.84063 17.9206 7.85862 17.9206 7.89946C17.9206 7.9403 17.9464 7.9578 18.0144 7.9578C18.0763 7.95564 18.1377 7.947 18.1977 7.93203V7.84744ZM18.2235 8.03072L18.2201 8.00447C18.1429 8.02638 18.0635 8.03927 17.9833 8.04288C17.9372 8.04594 17.8912 8.03474 17.8516 8.01079C17.8354 7.99857 17.8225 7.98255 17.814 7.96414C17.8055 7.94574 17.8017 7.92552 17.803 7.90529C17.8018 7.88049 17.8083 7.85594 17.8214 7.83485C17.8345 7.81377 17.8536 7.79714 17.8764 7.78716C17.9287 7.76759 17.9845 7.7593 18.0402 7.76285C18.0859 7.76285 18.1472 7.76528 18.1982 7.76868V7.76285C18.1982 7.69479 18.1535 7.67242 18.0305 7.67242C17.9819 7.67242 17.9255 7.67485 17.87 7.6802V7.59172C17.9313 7.58686 18.0003 7.58346 18.0572 7.58346C18.1274 7.57728 18.1979 7.59128 18.2604 7.62381C18.309 7.6593 18.3197 7.7084 18.3197 7.77354V8.03169L18.2235 8.03072Z" fill="white"/>
<path d="M18.8898 8.03091V7.78783C18.8898 7.70858 18.849 7.6799 18.7765 7.6799C18.7164 7.68248 18.6567 7.69178 18.5986 7.70761V8.02896H18.4785V7.59142H18.5757L18.5801 7.61865C18.656 7.59662 18.7341 7.58341 18.813 7.57927C18.8667 7.57509 18.9201 7.59103 18.9627 7.62399C18.9804 7.64176 18.994 7.66322 19.0024 7.68684C19.0108 7.71046 19.0138 7.73566 19.0113 7.7606V8.0275L18.8898 8.03091Z" fill="white"/>
<path d="M19.3536 8.04319C19.2957 8.04769 19.2381 8.0313 19.1912 7.997C19.1664 7.97351 19.1472 7.94466 19.1353 7.91264C19.1233 7.88062 19.1188 7.84628 19.1222 7.81226C19.1199 7.77621 19.1268 7.74017 19.1424 7.70758C19.158 7.67498 19.1816 7.64692 19.2111 7.62607C19.2694 7.59338 19.336 7.57834 19.4027 7.5828C19.4513 7.5828 19.5023 7.5862 19.5563 7.59106V7.6844C19.5126 7.68052 19.4591 7.67663 19.4173 7.67663C19.3016 7.67663 19.2471 7.71309 19.2471 7.81324C19.2471 7.91338 19.2879 7.9479 19.3827 7.9479C19.4444 7.946 19.5057 7.93851 19.566 7.92554V8.01548C19.4963 8.03151 19.4251 8.04079 19.3536 8.04319Z" fill="white"/>
<path d="M19.926 7.67411C19.8103 7.67411 19.7592 7.71057 19.7592 7.80974C19.7592 7.90892 19.8078 7.95122 19.926 7.95122C20.0441 7.95122 20.0908 7.91573 20.0908 7.81655C20.0908 7.71738 20.0422 7.67411 19.926 7.67411V7.67411ZM20.135 7.99692C20.0715 8.03285 19.9987 8.04894 19.926 8.0431C19.8529 8.04875 19.7799 8.03268 19.7159 7.99692C19.6875 7.97606 19.6649 7.94814 19.6505 7.91592C19.6361 7.8837 19.6303 7.84828 19.6338 7.81315C19.6304 7.77788 19.6361 7.74233 19.6505 7.70995C19.6649 7.67758 19.6875 7.64949 19.7159 7.62841C19.7799 7.59281 19.853 7.57691 19.926 7.58271C19.9986 7.57713 20.0713 7.59303 20.135 7.62841C20.1633 7.64941 20.1856 7.67738 20.1998 7.70959C20.2141 7.74179 20.2197 7.77714 20.2162 7.81218C20.2196 7.84735 20.214 7.88281 20.1998 7.91516C20.1855 7.94751 20.1632 7.97566 20.135 7.99692" fill="white"/>
<path d="M20.9185 8.04322C20.8426 8.04801 20.7675 8.02617 20.706 7.98147C20.6351 7.92313 20.6137 7.83222 20.6137 7.73451C20.6111 7.68592 20.6208 7.63747 20.6418 7.59357C20.6627 7.54968 20.6944 7.51172 20.7338 7.48316C20.8101 7.44093 20.897 7.42152 20.9841 7.42725C21.0498 7.42725 21.1168 7.43163 21.1903 7.43746V7.54393C21.1275 7.53858 21.0498 7.53421 20.9895 7.53421C20.8208 7.53421 20.7493 7.59838 20.7493 7.73451C20.7493 7.87063 20.8154 7.93577 20.9399 7.93577C21.0287 7.93286 21.117 7.92097 21.2034 7.90029V8.00627C21.1099 8.02817 21.0145 8.04071 20.9185 8.0437" fill="white"/>
<path d="M21.5626 7.66065C21.4615 7.66065 21.4226 7.69663 21.4168 7.76323H21.7085C21.7051 7.69225 21.6637 7.66065 21.5626 7.66065ZM21.5446 8.04326C21.4792 8.04916 21.4139 8.03196 21.3599 7.99464C21.3352 7.97153 21.3161 7.94311 21.3039 7.91153C21.2918 7.87995 21.287 7.84604 21.2899 7.81233C21.288 7.77742 21.2944 7.74255 21.3086 7.7106C21.3228 7.67865 21.3444 7.65054 21.3715 7.62856C21.429 7.59403 21.4957 7.57807 21.5626 7.58286C21.6286 7.57878 21.6943 7.59398 21.7517 7.62662C21.8217 7.67523 21.8276 7.75205 21.8285 7.84199H21.4138C21.4168 7.90859 21.4522 7.95137 21.5748 7.95137C21.6527 7.94965 21.7303 7.94218 21.8071 7.92901V8.01457C21.7205 8.031 21.6327 8.04059 21.5446 8.04326Z" fill="white"/>
<path d="M22.3698 8.03091V7.78783C22.3698 7.70858 22.3294 7.6799 22.257 7.6799C22.1968 7.68248 22.1372 7.69178 22.0791 7.70761V8.02896H21.957V7.59142H22.0567L22.0611 7.61865C22.1369 7.59658 22.2151 7.58337 22.2939 7.57927C22.3477 7.57509 22.401 7.59103 22.4437 7.62399C22.4614 7.64176 22.4749 7.66322 22.4833 7.68684C22.4917 7.71046 22.4948 7.73566 22.4923 7.7606V8.0275L22.3698 8.03091Z" fill="white"/>
<path d="M22.8377 8.04287C22.8108 8.04549 22.7836 8.04113 22.7589 8.03024C22.7341 8.01934 22.7125 8.00227 22.6963 7.98065C22.6721 7.94096 22.6609 7.89475 22.6642 7.84841V7.68506H22.5762V7.59464H22.6642L22.6773 7.4624H22.7852V7.59464H22.9568V7.68506H22.7852V7.82508C22.7835 7.85333 22.7876 7.88163 22.7974 7.90821C22.8048 7.92232 22.8164 7.93379 22.8306 7.94102C22.8448 7.94825 22.8609 7.95088 22.8766 7.94856C22.9058 7.94806 22.9349 7.94513 22.9636 7.93981V8.02732C22.9222 8.03641 22.8801 8.04162 22.8377 8.04287" fill="white"/>
<path d="M23.0762 8.03075V7.59321H23.1734L23.1778 7.62043C23.2474 7.59693 23.3202 7.58367 23.3936 7.58105H23.4092V7.68509C23.3951 7.68509 23.379 7.68509 23.3669 7.68509C23.3091 7.6853 23.2516 7.69281 23.1958 7.70745V8.02978L23.0762 8.03075Z" fill="white"/>
<path d="M23.8539 7.84744C23.8029 7.84307 23.7509 7.84064 23.6964 7.84064C23.6074 7.84064 23.5763 7.85863 23.5763 7.89946C23.5763 7.9403 23.6026 7.9578 23.6706 7.9578C23.7325 7.95558 23.7939 7.94694 23.8539 7.93204V7.84744ZM23.8797 8.03073L23.8748 8.00593C23.7977 8.02781 23.7182 8.04069 23.6381 8.04434C23.5918 8.04735 23.5456 8.03616 23.5058 8.01225C23.4897 7.99998 23.4769 7.98394 23.4684 7.96555C23.4599 7.94716 23.4561 7.92697 23.4572 7.90676C23.456 7.88125 23.4629 7.85602 23.4767 7.83457C23.4906 7.81313 23.5108 7.79656 23.5345 7.78716C23.5866 7.76802 23.6421 7.76006 23.6974 7.76383C23.7431 7.76383 23.8048 7.76626 23.8559 7.76966V7.76285C23.8559 7.69479 23.8107 7.67243 23.6881 7.67243C23.6395 7.67243 23.5827 7.67486 23.5272 7.68021V7.59173C23.589 7.58687 23.658 7.58346 23.7149 7.58346C23.7849 7.57727 23.8553 7.59127 23.9176 7.62381C23.9662 7.6593 23.9774 7.7084 23.9774 7.77355V8.0317L23.8797 8.03073Z" fill="white"/>
<path d="M24.1309 7.41064H24.2529V8.03098H24.1309V7.41064Z" fill="white"/>
</svg>
