<svg width="44" height="44" viewBox="0 0 44 44" fill="none" xmlns="http://www.w3.org/2000/svg">
<rect width="44" height="44" rx="22" fill="#FAFDFF"/>
<path d="M27.2959 22.7969L19.7959 30.2969C19.5846 30.5082 19.2979 30.6269 18.999 30.6269C18.7001 30.6269 18.4135 30.5082 18.2021 30.2969C17.9908 30.0855 17.8721 29.7989 17.8721 29.5C17.8721 29.2011 17.9908 28.9145 18.2021 28.7031L24.9062 22.0009L18.204 15.2969C18.0994 15.1922 18.0164 15.068 17.9597 14.9313C17.9031 14.7945 17.8739 14.648 17.8739 14.5C17.8739 14.352 17.9031 14.2055 17.9597 14.0687C18.0164 13.932 18.0994 13.8078 18.204 13.7031C18.3087 13.5985 18.4329 13.5155 18.5696 13.4588C18.7064 13.4022 18.8529 13.373 19.0009 13.373C19.1489 13.373 19.2954 13.4022 19.4322 13.4588C19.5689 13.5155 19.6931 13.5985 19.7978 13.7031L27.2978 21.2031C27.4025 21.3078 27.4856 21.4321 27.5422 21.5689C27.5988 21.7057 27.6279 21.8523 27.6277 22.0004C27.6275 22.1485 27.5981 22.295 27.5412 22.4317C27.4843 22.5684 27.4009 22.6925 27.2959 22.7969Z" fill="#008EC0"/>
</svg>
