<svg width="64" height="64" viewBox="0 0 64 64" fill="none" xmlns="http://www.w3.org/2000/svg">
<rect width="64" height="64" rx="32" fill="#FAFDFF"/>
<path d="M43.5 29.9992V41.9992C43.5 42.6623 43.2366 43.2982 42.7678 43.767C42.2989 44.2358 41.663 44.4992 41 44.4992H23C22.337 44.4992 21.7011 44.2358 21.2322 43.767C20.7634 43.2982 20.5 42.6623 20.5 41.9992V29.9992C20.5 29.3362 20.7634 28.7003 21.2322 28.2315C21.7011 27.7626 22.337 27.4992 23 27.4992H25.5C25.8978 27.4992 26.2794 27.6573 26.5607 27.9386C26.842 28.2199 27 28.6014 27 28.9992C27 29.3971 26.842 29.7786 26.5607 30.0599C26.2794 30.3412 25.8978 30.4992 25.5 30.4992H23.5V41.4992H40.5V30.4992H38.5C38.1022 30.4992 37.7206 30.3412 37.4393 30.0599C37.158 29.7786 37 29.3971 37 28.9992C37 28.6014 37.158 28.2199 37.4393 27.9386C37.7206 27.6573 38.1022 27.4992 38.5 27.4992H41C41.663 27.4992 42.2989 27.7626 42.7678 28.2315C43.2366 28.7003 43.5 29.3362 43.5 29.9992ZM28.0612 25.0605L30.5 22.6242V32.9992C30.5 33.3971 30.658 33.7786 30.9393 34.0599C31.2206 34.3412 31.6022 34.4992 32 34.4992C32.3978 34.4992 32.7794 34.3412 33.0607 34.0599C33.342 33.7786 33.5 33.3971 33.5 32.9992V22.6242L35.9387 25.0642C36.0783 25.2038 36.2439 25.3144 36.4262 25.39C36.6085 25.4655 36.8039 25.5043 37.0012 25.5043C37.1986 25.5043 37.394 25.4655 37.5763 25.39C37.7586 25.3144 37.9242 25.2038 38.0637 25.0642C38.2033 24.9247 38.314 24.7591 38.3895 24.5768C38.465 24.3944 38.5039 24.1991 38.5039 24.0017C38.5039 23.8044 38.465 23.609 38.3895 23.4267C38.314 23.2444 38.2033 23.0788 38.0637 22.9392L33.0637 17.9392C32.9244 17.7994 32.7588 17.6884 32.5765 17.6127C32.3941 17.537 32.1987 17.498 32.0012 17.498C31.8038 17.498 31.6084 17.537 31.426 17.6127C31.2437 17.6884 31.0781 17.7994 30.9388 17.9392L25.9388 22.9392C25.7992 23.0788 25.6885 23.2444 25.613 23.4267C25.5375 23.609 25.4986 23.8044 25.4986 24.0017C25.4986 24.4002 25.657 24.7824 25.9388 25.0642C26.2205 25.346 26.6027 25.5043 27.0013 25.5043C27.3998 25.5043 27.782 25.346 28.0638 25.0642L28.0612 25.0605Z" fill="#35C7EE"/>
</svg>
