<svg width="240" height="61" viewBox="0 0 240 61" fill="none" xmlns="http://www.w3.org/2000/svg">
<path d="M14.5636 6.80005C5.66132 23.9439 13.3175 28.6428 16.2556 28.6428C18.9381 28.6428 22.0559 26.9556 29.3578 20.4883L32.8123 23.3996C32.8123 23.3996 29.7808 27.2444 33.0449 29.5182C36.4923 31.9169 38.6831 28.2289 38.6831 28.2289L42.2398 31.2001C42.2398 31.2001 40.7734 34.277 39.2013 35.8075C34.3121 40.5681 32.3805 41.7217 27.0455 44.1082C25.7588 44.6841 24.4581 45.223 23.2508 45.6563C4.62498 52.3314 -2.37381 27.8362 14.5636 6.80005Z" fill="#008EC1"/>
<path d="M14.7434 0C14.5019 0.302932 9.53703 2.75104 5.00394 9.73256C0.759896 16.2702 -0.877445 25.8936 0.4497 32.7536C0.786333 34.4937 2.95066 49.841 19.9691 57.4179C33.7658 63.5593 52.3353 59.1033 62.5894 40.6245L58.4282 37.1549C58.4282 37.1549 55.4919 41.4699 51.9123 38.6555C48.2058 35.7424 52.1854 31.9064 52.1854 31.9064L47.5219 27.9454C38.8047 38.5199 25.7906 42.0194 18.8006 38.194C4.15971 30.2139 3.15158 15.4953 14.7434 0Z" fill="#45C0E7"/>
<path opacity="0.5" d="M58.2994 44.0343C55.3491 47.9954 46.3269 58.8674 31.6014 58.959C19.7241 59.033 10.4834 50.1669 7.15764 46.0738C3.72786 41.8539 2.53643 37.3822 3.37537 39.0166C4.02748 40.2882 13.6506 56.4087 31.5239 56.4087C49.4236 56.4087 59.8487 41.9543 58.2994 44.0343Z" fill="white"/>
<path d="M99.8778 16.1171C98.7287 16.1171 97.791 16.4552 97.0631 17.1315C96.3352 17.8078 95.9722 18.6568 95.9722 19.6765C95.9722 20.6716 96.3352 21.5082 97.0631 22.1827C97.791 22.8591 98.7287 23.1972 99.8778 23.1972C101.001 23.1972 101.926 22.8591 102.654 22.1827C103.382 21.5064 103.745 20.6716 103.745 19.6765C103.745 18.6568 103.382 17.8078 102.654 17.1315C101.926 16.457 101.001 16.1171 99.8778 16.1171Z" fill="#45C0E7"/>
<path d="M103.133 25.4164H96.584V46.7695H103.133V25.4164Z" fill="#45C0E7"/>
<path d="M117.188 30.6983C118.873 30.6983 120.008 31.5155 120.596 33.1482H127.567C127.005 30.5979 125.824 28.6201 124.024 27.2164C122.225 25.8127 119.985 25.1117 117.304 25.1117C115.21 25.1117 113.353 25.559 111.733 26.4502C110.111 27.3432 108.848 28.6183 107.942 30.2774C107.036 31.9365 106.583 33.8738 106.583 36.0947C106.583 38.3139 107.036 40.253 107.942 41.9121C108.848 43.5711 110.111 44.8463 111.733 45.7392C113.354 46.6322 115.21 47.0778 117.304 47.0778C119.958 47.0778 122.193 46.3645 124.005 44.9343C125.817 43.506 127.005 41.5422 127.567 39.0413H120.596C120.01 40.6739 118.873 41.4911 117.188 41.4911C115.988 41.4911 115.031 41.0262 114.315 40.0945C113.599 39.1628 113.243 37.8313 113.243 36.0947C113.243 34.3599 113.601 33.0267 114.315 32.095C115.031 31.1633 115.988 30.6983 117.188 30.6983Z" fill="#45C0E7"/>
<path d="M152.151 25.4162H144.07L137.598 34.1043V18.4523H131.051V46.7711H137.598V37.8152L144.109 46.7711H152.227L143.267 36.1315L152.151 25.4162Z" fill="#45C0E7"/>
<path d="M169.729 26.4117C168.12 25.5451 166.282 25.1101 164.214 25.1101C162.094 25.1101 160.219 25.5575 158.585 26.4504C156.951 27.3433 155.68 28.6185 154.774 30.2776C153.868 31.9366 153.416 33.874 153.416 36.0949C153.416 38.314 153.876 40.2532 154.794 41.9122C155.714 43.5713 156.99 44.8465 158.624 45.7394C160.257 46.6323 162.12 47.0797 164.214 47.0797C165.95 47.0797 167.521 46.7609 168.925 46.1233C170.328 45.4858 171.497 44.6052 172.429 43.4833C173.361 42.3614 174.005 41.0986 174.363 39.6949H167.392C166.754 41.0721 165.617 41.7608 163.983 41.7608C162.859 41.7608 161.928 41.4032 161.188 40.6899C160.448 39.9766 160.027 38.9428 159.924 37.5902H174.745C174.821 36.9262 174.86 36.3027 174.86 35.7145C174.86 33.5975 174.407 31.7341 173.501 30.1278C172.595 28.5163 171.338 27.2799 169.729 26.4117ZM159.926 34.2579C160.104 33.0075 160.571 32.0458 161.324 31.3695C162.076 30.6932 163.014 30.355 164.138 30.355C165.288 30.355 166.245 30.7002 167.011 31.3889C167.776 32.0775 168.16 33.0339 168.16 34.2597H159.926V34.2579Z" fill="#45C0E7"/>
<path d="M186.349 40.8004C186.042 40.5204 185.889 40.0607 185.889 39.4232V30.8513H190.177V25.4179H185.889V20.2117H179.34V25.4161H176.735V30.8495H179.34V39.3457C179.34 41.9734 180.004 43.8685 181.331 45.0292C182.659 46.1898 184.509 46.771 186.885 46.771H190.216V41.2214H187.879C187.167 41.2214 186.656 41.0822 186.349 40.8004Z" fill="#45C0E7"/>
<path d="M240 35.711C240 33.594 239.547 31.7306 238.641 30.1243C237.735 28.5181 236.477 27.2799 234.869 26.4117C233.26 25.5451 231.422 25.1101 229.354 25.1101C227.234 25.1101 225.359 25.5575 223.725 26.4504C222.091 27.3433 220.82 28.6185 219.915 30.2776C219.009 31.9366 218.556 33.874 218.556 36.0949C218.556 38.314 219.016 40.2532 219.934 41.9122C220.854 43.5713 222.13 44.8465 223.764 45.7394C225.398 46.6323 227.261 47.0797 229.354 47.0797C231.09 47.0797 232.661 46.7609 234.065 46.1233C235.468 45.4858 236.637 44.6052 237.569 43.4833C238.502 42.3614 239.145 41.0986 239.503 39.6949H232.532C231.894 41.0721 230.757 41.7608 229.123 41.7608C227.999 41.7608 227.068 41.4032 226.328 40.6899C225.588 39.9766 225.167 38.9428 225.065 37.5902H239.885C239.963 36.9227 240 36.2992 240 35.711ZM225.065 34.2579C225.243 33.0075 225.71 32.0458 226.462 31.3695C227.215 30.6932 228.152 30.355 229.277 30.355C230.426 30.355 231.383 30.7002 232.15 31.3889C232.915 32.0775 233.299 33.0339 233.299 34.2597H225.065V34.2579Z" fill="#45C0E7"/>
<path d="M93.2294 48.3033C92.7764 49.5555 92.149 50.1614 90.9752 50.3111C88.4125 50.6369 86.1671 48.5728 86.1671 45.9926V45.6315V25.2241C86.1671 25.1414 86.2341 25.0727 86.3187 25.0727H93.1395C93.2223 25.0727 93.2911 25.0057 93.2911 24.9212V20.0584C93.2911 19.9757 93.2241 19.907 93.1395 19.907H72.6472C72.5644 19.907 72.4956 19.9739 72.4956 20.0584V24.9212C72.4956 25.004 72.5626 25.0727 72.6472 25.0727H79.468C79.5508 25.0727 79.6195 25.1396 79.6195 25.2241V46.734C79.5931 49.1416 80.3774 50.8465 81.6235 51.9367C82.9506 53.0974 84.8012 53.6786 87.177 53.6786C91.9675 53.6768 93.5695 49.6911 93.2294 48.3033Z" fill="#45C0E7"/>
<path d="M215.167 30.2776C214.337 28.6202 213.207 27.3433 211.778 26.4504C210.348 25.5575 208.753 25.1101 206.991 25.1101C205.484 25.1101 204.169 25.4166 203.046 26.0277C201.922 26.6406 201.042 27.4437 200.404 28.4388V25.4166H193.855V50.4067C193.855 50.5476 193.86 50.6867 193.867 50.8276C193.866 51.0143 193.887 51.2062 193.887 51.4035C193.887 57.2156 197.798 60.2554 202.981 60.2554C209.485 60.2554 210.348 55.5318 210.348 53.5998C210.332 53.6156 210.317 53.6297 210.301 53.6456C209.643 55.6393 207.764 57.0782 205.549 57.0782C202.872 57.0782 200.801 54.9682 200.552 52.3334C200.552 52.3334 200.5 51.9284 200.5 51.7152L200.498 51.1886L200.503 48.5803C200.503 48.42 200.503 48.3214 200.503 48.3214V43.7527C201.141 44.7232 201.925 45.5474 203.062 46.1603C204.197 46.7732 205.507 47.0797 206.987 47.0797C208.748 47.0797 210.345 46.627 211.774 45.7218C213.203 44.8165 214.333 43.5273 215.163 41.8559C215.993 40.1845 216.408 38.2524 216.408 36.0579C216.411 33.8617 215.995 31.9366 215.167 30.2776ZM208.369 39.9397C207.449 40.896 206.339 41.3751 205.038 41.3751C203.735 41.3751 202.63 40.9031 201.724 39.959C200.819 39.015 200.366 37.7276 200.366 36.0931C200.366 34.4605 200.819 33.173 201.724 32.2272C202.63 31.2832 203.735 30.8112 205.038 30.8112C206.365 30.8112 207.482 31.2762 208.388 32.2079C209.294 33.1396 209.747 34.4217 209.747 36.0544C209.747 37.6888 209.287 38.9833 208.369 39.9397Z" fill="#45C0E7"/>
</svg>
