<svg width="56" height="57" viewBox="0 0 56 57" fill="none" xmlns="http://www.w3.org/2000/svg">
<rect x="0.194824" y="0.22522" width="55.8049" height="55.8049" rx="27.9024" fill="#FAFDFF"/>
<path d="M40.4636 22.4204V27.1765C40.4636 27.4288 40.3634 27.6707 40.185 27.8491C40.0066 28.0275 39.7647 28.1277 39.5124 28.1277C37.5253 28.1324 35.5668 27.6546 33.8051 26.7354V31.457C33.8051 33.8537 32.853 36.1522 31.1583 37.8468C29.4637 39.5415 27.1652 40.4936 24.7685 40.4936C22.3719 40.4936 20.0734 39.5415 18.3787 37.8468C16.684 36.1522 15.7319 33.8537 15.7319 31.457C15.7319 27.0695 18.9316 23.1909 23.1752 22.4347C23.3121 22.4104 23.4527 22.4163 23.587 22.4522C23.7214 22.4881 23.8462 22.5529 23.9528 22.6423C24.0593 22.7316 24.145 22.8432 24.2038 22.9692C24.2625 23.0952 24.293 23.2326 24.2929 23.3716V28.4476C24.293 28.6276 24.2419 28.804 24.1458 28.9561C24.0496 29.1083 23.9122 29.2301 23.7495 29.3073C23.365 29.4896 23.0365 29.7718 22.7982 30.1243C22.56 30.4769 22.4207 30.8869 22.3948 31.3117C22.369 31.7364 22.4577 32.1603 22.6515 32.5392C22.8453 32.918 23.1373 33.2378 23.4969 33.4654C23.8564 33.693 24.2705 33.8199 24.6958 33.8329C25.1212 33.8459 25.5422 33.7445 25.915 33.5394C26.2878 33.3342 26.5988 33.0328 26.8154 32.6665C27.032 32.3002 27.1464 31.8825 27.1466 31.457V15.7619C27.1466 15.5096 27.2468 15.2677 27.4252 15.0893C27.6036 14.9109 27.8455 14.8107 28.0978 14.8107H32.8539C33.1062 14.8107 33.3481 14.9109 33.5265 15.0893C33.7049 15.2677 33.8051 15.5096 33.8051 15.7619C33.8067 17.2751 34.4085 18.7258 35.4785 19.7958C36.5485 20.8658 37.9992 21.4676 39.5124 21.4692C39.7647 21.4692 40.0066 21.5694 40.185 21.7478C40.3634 21.9262 40.4636 22.1681 40.4636 22.4204Z" fill="#008EC0"/>
</svg>
