<svg width="24" height="8" viewBox="0 0 24 8" fill="none" xmlns="http://www.w3.org/2000/svg">
<path fill-rule="evenodd" clip-rule="evenodd" d="M5.87004 7.43499H3.83806L2.31433 1.62186C2.24201 1.35445 2.08845 1.11805 1.86256 1.00663C1.29884 0.726636 0.677655 0.503799 0 0.391412V0.167606H3.27335C3.72512 0.167606 4.06395 0.503799 4.12042 0.894247L4.91102 5.08745L6.942 0.167606H8.91751L5.87004 7.43499ZM10.0469 7.43499H8.1279L9.7081 0.167606H11.6271L10.0469 7.43499ZM14.1099 2.18089C14.1664 1.78947 14.5052 1.56567 14.9005 1.56567C15.5217 1.50948 16.1983 1.62186 16.763 1.90089L17.1019 0.336193C16.5372 0.112387 15.916 0 15.3523 0C13.4897 0 12.1344 1.00664 12.1344 2.40373C12.1344 3.46656 13.0944 4.02462 13.7721 4.36082C14.5052 4.69604 14.7875 4.91984 14.7311 5.25507C14.7311 5.7579 14.1664 5.98171 13.6026 5.98171C12.925 5.98171 12.2473 5.8141 11.6271 5.5341L11.2883 7.09977C11.966 7.3788 12.6991 7.49119 13.3768 7.49119C15.4652 7.54641 16.763 6.54074 16.763 5.03126C16.763 3.13037 14.1099 3.01895 14.1099 2.18089V2.18089ZM23.4792 7.43499L21.9554 0.167606H20.3188C19.9799 0.167606 19.6411 0.391412 19.5282 0.726636L16.7066 7.43499H18.6821L19.0764 6.37312H21.5037L21.7295 7.43499H23.4792ZM20.6011 2.1247L21.1648 4.86365H19.5846L20.6011 2.1247Z" fill="white"/>
</svg>
