<svg width="56" height="57" viewBox="0 0 56 57" fill="none" xmlns="http://www.w3.org/2000/svg">
<rect y="0.22522" width="55.8049" height="55.8049" rx="27.9024" fill="#FAFDFF"/>
<path d="M30.8251 30.1763L33.5599 31.5413C33.4302 32.1891 33.0799 32.7718 32.5686 33.19C32.0573 33.6083 31.4167 33.8362 30.7561 33.8349C28.4864 33.8324 26.3103 32.9297 24.7054 31.3247C23.1004 29.7198 22.1977 27.5437 22.1952 25.274C22.195 24.6142 22.4234 23.9748 22.8416 23.4644C23.2598 22.9541 23.8418 22.6045 24.4888 22.475L25.8538 25.2098L24.6921 26.9386C24.6053 27.0688 24.552 27.2184 24.5368 27.3742C24.5217 27.53 24.5452 27.6871 24.6053 27.8316C25.2859 29.4491 26.5727 30.7359 28.1902 31.4165C28.3352 31.4792 28.4934 31.5049 28.6508 31.4912C28.8081 31.4775 28.9596 31.4249 29.0915 31.338L30.8251 30.1763ZM40.2683 28.1276C40.2688 30.2626 39.7165 32.3612 38.6653 34.2194C37.614 36.0776 36.0995 37.6319 34.2693 38.7311C32.4391 39.8304 30.3555 40.437 28.2213 40.4921C26.0871 40.5471 23.975 40.0487 22.0905 39.0452L18.0419 40.3948C17.7067 40.5066 17.347 40.5228 17.0031 40.4416C16.6592 40.3605 16.3447 40.1851 16.0948 39.9353C15.845 39.6854 15.6696 39.3709 15.5885 39.027C15.5073 38.6831 15.5235 38.3234 15.6353 37.9882L16.9849 33.9396C16.1028 32.2812 15.6101 30.4436 15.5442 28.5663C15.4784 26.6891 15.841 24.8215 16.6047 23.1053C17.3684 21.3892 18.513 19.8696 19.9516 18.6618C21.3903 17.454 23.0852 16.5899 24.9076 16.135C26.7301 15.6801 28.6323 15.6463 30.4698 16.0363C32.3072 16.4263 34.0317 17.2297 35.5123 18.3857C36.9929 19.5416 38.1907 21.0197 39.0148 22.7077C39.8389 24.3957 40.2676 26.2492 40.2683 28.1276ZM35.5122 30.9813C35.5124 30.8046 35.4633 30.6313 35.3704 30.4809C35.2776 30.3306 35.1447 30.209 34.9867 30.1299L31.1818 28.2275C31.032 28.1529 30.8652 28.1191 30.6982 28.1295C30.5312 28.1399 30.3699 28.1943 30.2306 28.287L28.4839 29.4522C27.6821 29.0114 27.0223 28.3516 26.5815 27.5498L27.7467 25.8031C27.8394 25.6638 27.8937 25.5025 27.9042 25.3355C27.9146 25.1684 27.8808 25.0016 27.8062 24.8519L25.9037 21.047C25.8249 20.8877 25.703 20.7538 25.5519 20.6603C25.4008 20.5667 25.2265 20.5174 25.0488 20.5179C23.7874 20.5179 22.5777 21.019 21.6857 21.9109C20.7938 22.8028 20.2927 24.0126 20.2927 25.274C20.2959 28.0481 21.3993 30.7077 23.3609 32.6692C25.3224 34.6308 27.982 35.7342 30.7561 35.7374C31.3807 35.7374 31.9992 35.6144 32.5762 35.3753C33.1532 35.1363 33.6776 34.786 34.1192 34.3444C34.5608 33.9027 34.9112 33.3784 35.1502 32.8014C35.3892 32.2243 35.5122 31.6059 35.5122 30.9813Z" fill="#008EC0"/>
</svg>
